<?xml version="1.0" encoding="UTF-8" standalone="no"?>
<svg
   xmlns:dc="http://purl.org/dc/elements/1.1/"
   xmlns:cc="http://creativecommons.org/ns#"
   xmlns:rdf="http://www.w3.org/1999/02/22-rdf-syntax-ns#"
   xmlns="http://www.w3.org/2000/svg"
   xmlns:sodipodi="http://sodipodi.sourceforge.net/DTD/sodipodi-0.dtd"
   xmlns:inkscape="http://www.inkscape.org/namespaces/inkscape"
   version="1.2"
   width="144"
   height="144"
   viewBox="94 94 4064.0001 4064.0001"
   preserveAspectRatio="xMidYMid"
   xml:space="preserve"
   id="svg2"
   inkscape:version="0.91 r13725"
   sodipodi:docname="icon.svg"
   style="fill-rule:evenodd;stroke-width:28.22200012;stroke-linejoin:round"
   inkscape:export-filename="C:\Users\Yuji\Dropbox\prg\prj\keep-me-contributing\app\img\icon.png"
   inkscape:export-xdpi="90"
   inkscape:export-ydpi="90"><metadata
     id="metadata98"><rdf:RDF><cc:Work
         rdf:about=""><dc:format>image/svg+xml</dc:format><dc:type
           rdf:resource="http://purl.org/dc/dcmitype/StillImage" /><dc:title></dc:title></cc:Work></rdf:RDF></metadata><sodipodi:namedview
     pagecolor="#ffffff"
     bordercolor="#666666"
     borderopacity="0"
     objecttolerance="10"
     gridtolerance="10"
     guidetolerance="10"
     inkscape:pageopacity="1"
     inkscape:pageshadow="2"
     inkscape:window-width="1366"
     inkscape:window-height="715"
     id="namedview96"
     showgrid="false"
     units="px"
     inkscape:zoom="1"
     inkscape:cx="-94.5"
     inkscape:cy="64.004541"
     inkscape:window-x="-8"
     inkscape:window-y="22"
     inkscape:window-maximized="1"
     inkscape:current-layer="g46" /><defs
     class="ClipPathGroup"
     id="defs4" /><defs
     class="TextShapeIndex"
     id="defs9" /><defs
     class="EmbeddedBulletChars"
     id="defs13" /><defs
     class="TextEmbeddedBitmaps"
     id="defs42" /><g
     id="g46"
     transform="matrix(3.1101201,0,0,3.1101201,-198.35128,-196.16693)"><g
       id="g51"
       class="com.sun.star.drawing.PolyPolygonShape"><g
         id="id3"><path
           style="fill:#8cc665;stroke:none"
           inkscape:connector-curvature="0"
           id="path54"
           d="m 289,483 -195,0 0,-389 389,0 0,389 -194,0 z" /></g></g><g
       id="g56"
       class="com.sun.star.drawing.PolyPolygonShape"><g
         id="id4"><path
           style="fill:#d6e685;stroke:none"
           inkscape:connector-curvature="0"
           id="path59"
           d="m 289,942 -195,0 0,-389 389,0 0,389 -194,0 z" /></g></g><g
       id="g61"
       class="com.sun.star.drawing.PolyPolygonShape"><g
         id="id5"><path
           style="fill:#d6e685;stroke:none"
           inkscape:connector-curvature="0"
           id="path64"
           d="m 289,1400 -195,0 0,-389 389,0 0,389 -194,0 z" /></g></g><g
       id="g66"
       class="com.sun.star.drawing.PolyPolygonShape"><g
         id="id6"><path
           style="fill:#d6e685;stroke:none"
           inkscape:connector-curvature="0"
           id="path69"
           d="m 748,483 -195,0 0,-389 389,0 0,389 -194,0 z" /></g></g><g
       id="g71"
       class="com.sun.star.drawing.PolyPolygonShape"><g
         id="id7"><path
           style="fill:#d6e685;stroke:none"
           inkscape:connector-curvature="0"
           id="path74"
           d="m 748,942 -195,0 0,-389 389,0 0,389 -194,0 z" /></g></g><g
       id="g76"
       class="com.sun.star.drawing.PolyPolygonShape"><g
         id="id8"><path
           style="fill:#8cc665;stroke:none"
           inkscape:connector-curvature="0"
           id="path79"
           d="m 748,1400 -195,0 0,-389 389,0 0,389 -194,0 z" /></g></g><g
       id="g81"
       class="com.sun.star.drawing.PolyPolygonShape"><g
         id="id9"><path
           style="fill:#d6e685;stroke:none"
           inkscape:connector-curvature="0"
           id="path84"
           d="m 1206,483 -195,0 0,-389 389,0 0,389 -194,0 z" /></g></g><g
       id="g86"
       class="com.sun.star.drawing.PolyPolygonShape"><g
         id="id10"><path
           style="fill:#44a340;stroke:none"
           inkscape:connector-curvature="0"
           id="path89"
           d="m 1206,942 -195,0 0,-389 389,0 0,389 -194,0 z" /></g></g><g
       id="g91"
       class="com.sun.star.drawing.PolyPolygonShape"><g
         id="id11"><path
           style="fill:#8cc665;stroke:none"
           inkscape:connector-curvature="0"
           id="path94"
           d="m 1206,1400 -195,0 0,-389 389,0 0,389 -194,0 z" /></g></g></g></svg>